<svg xmlns="http://www.w3.org/2000/svg" xmlns:xlink="http://www.w3.org/1999/xlink" width="500" zoomAndPan="magnify" viewBox="0 0 375 374.999991" height="500" preserveAspectRatio="xMidYMid meet" version="1.0"><defs><clipPath id="c410c431bb"><path d="M 22 38 L 353.394531 38 L 353.394531 334 L 22 334 Z M 22 38 " clip-rule="nonzero"/></clipPath></defs><g clip-path="url(#c410c431bb)"><path fill="#ff0049" d="M 215.089844 42.570312 L 240.207031 55.6875 C 241.175781 56.214844 242.289062 56.441406 243.417969 56.375 L 280.308594 53.882812 C 291.875 53.164062 300.15625 56.347656 306.242188 63.546875 C 312.324219 70.75 316.292969 82.796875 316.292969 100.355469 C 316.292969 110.734375 317.203125 117.402344 320.417969 123.21875 C 323.667969 129.0625 328.300781 133.054688 335.035156 140.175781 C 343.824219 149.417969 346.03125 152.382812 347.320312 170.777344 L 352.203125 241.664062 C 352.957031 252.136719 353.714844 259.757812 352.582031 266.335938 C 351.445312 272.867188 348.707031 278.882812 341.144531 287.1875 L 305.519531 326.277344 C 295.40625 337.378906 279.714844 333.453125 267.617188 331.539062 L 199.242188 320.753906 C 191.679688 319.550781 186.796875 316.621094 183.609375 312.847656 C 180.398438 309.101562 178.609375 304.234375 178.632812 298.503906 C 178.757812 280.605469 185.976562 284.265625 199.375 284.289062 C 211.308594 284.320312 222.96875 282.5 231.035156 275.804688 C 239.824219 268.5625 238.75 267 246.347656 274.167969 C 254.121094 281.5 265.371094 284.289062 276.9375 284.289062 C 288.503906 284.289062 299.375 281.085938 307.527344 274.167969 C 315.695312 267.238281 320.703125 256.515625 320.703125 243.425781 L 317.171875 155.136719 C 317.679688 146.621094 308.074219 146.621094 308.570312 155.136719 L 308.570312 243.425781 C 308.570312 253.597656 305.144531 260.296875 299.660156 264.945312 C 294.203125 269.601562 286.261719 272.15625 276.9375 272.15625 C 267.617188 272.15625 259.671875 269.59375 254.191406 264.945312 C 248.738281 260.296875 245.554688 253.597656 245.332031 243.425781 L 242.664062 130.101562 C 242.402344 120.253906 233.179688 123.78125 233.179688 130.101562 L 233.179688 243.425781 C 233.179688 252.058594 230.117188 261.679688 224.164062 265.855469 C 218.398438 269.945312 209.550781 272.15625 199.375 272.15625 C 189.1875 272.15625 180.40625 269.878906 174.605469 265.855469 C 168.777344 261.828125 165.65625 256.515625 165.53125 247.867188 L 163.640625 134.160156 C 163.492188 124.273438 153.429688 127.808594 153.429688 134.160156 L 153.429688 247.867188 C 153.429688 256.515625 150.160156 261.828125 144.359375 265.855469 C 138.570312 269.878906 129.742188 272.15625 119.566406 272.15625 C 109.417969 272.15625 100.605469 269.878906 94.800781 265.855469 C 88.972656 261.828125 85.757812 256.515625 85.757812 247.867188 L 85.757812 153.214844 C 85.863281 145.066406 75.710938 145.066406 75.777344 153.214844 L 73.636719 239.117188 C 73.636719 249.4375 58.101562 252.488281 47.550781 252.488281 C 40.492188 252.488281 34.601562 249.285156 29.90625 242.835938 C 25.242188 236.378906 22.089844 226.601562 22.089844 214.546875 L 22.089844 138.683594 C 22.089844 126.515625 23.828125 117.148438 27.292969 111.042969 C 30.730469 104.945312 35.484375 101.476562 44.46875 100.070312 L 75.785156 95.226562 C 77.296875 95.003906 78.679688 94.175781 79.625 92.992188 L 102.535156 64.117188 C 106.664062 58.890625 116.804688 55.554688 125.03125 56.667969 L 155.9375 60.753906 C 157.351562 60.9375 158.808594 60.628906 160 59.875 L 187.695312 42.234375 C 196.542969 36.5625 206.847656 38.230469 215.089844 42.570312 Z M 215.089844 42.570312 " fill-opacity="1" fill-rule="nonzero"/></g></svg>