<svg xmlns="http://www.w3.org/2000/svg" xmlns:xlink="http://www.w3.org/1999/xlink" width="500" zoomAndPan="magnify" viewBox="0 0 375 374.999991" height="500" preserveAspectRatio="xMidYMid meet" version="1.0"><defs><clipPath id="9489b953bd"><path d="M 22 39 L 353.394531 39 L 353.394531 335 L 22 335 Z M 22 39 " clip-rule="nonzero"/></clipPath></defs><rect x="-37.5" width="450" fill="#ffffff" y="-37.499999" height="449.999989" fill-opacity="1"/><rect x="-37.5" width="450" fill="#ffffff" y="-37.499999" height="449.999989" fill-opacity="1"/><g clip-path="url(#9489b953bd)"><path fill="#ff0049" d="M 215.089844 43.0625 L 240.207031 56.179688 C 241.175781 56.707031 242.289062 56.9375 243.417969 56.871094 L 280.308594 54.375 C 291.875 53.65625 300.15625 56.839844 306.242188 64.039062 C 312.324219 71.242188 316.292969 83.292969 316.292969 100.847656 C 316.292969 111.226562 317.203125 117.894531 320.417969 123.710938 C 323.667969 129.558594 328.300781 133.550781 335.035156 140.667969 C 343.824219 149.910156 346.03125 152.875 347.320312 171.269531 L 352.203125 242.15625 C 352.957031 252.628906 353.714844 260.25 352.582031 266.828125 C 351.445312 273.363281 348.707031 279.375 341.144531 287.679688 L 305.519531 326.773438 C 295.40625 337.871094 279.714844 333.945312 267.617188 332.03125 L 199.242188 321.246094 C 191.679688 320.042969 186.796875 317.113281 183.609375 313.339844 C 180.398438 309.597656 178.609375 304.730469 178.632812 298.996094 C 178.757812 281.097656 185.976562 284.757812 199.375 284.78125 C 211.308594 284.8125 222.96875 282.992188 231.035156 276.296875 C 239.824219 269.054688 238.75 267.492188 246.347656 274.660156 C 254.121094 281.992188 265.371094 284.78125 276.9375 284.78125 C 288.503906 284.78125 299.375 281.582031 307.527344 274.660156 C 315.695312 267.734375 320.703125 257.007812 320.703125 243.921875 L 317.171875 155.628906 C 317.679688 147.113281 308.074219 147.113281 308.570312 155.628906 L 308.570312 243.921875 C 308.570312 254.089844 305.144531 260.789062 299.660156 265.4375 C 294.203125 270.09375 286.261719 272.648438 276.9375 272.648438 C 267.617188 272.648438 259.671875 270.089844 254.191406 265.4375 C 248.738281 260.789062 245.554688 254.089844 245.332031 243.921875 L 242.664062 130.597656 C 242.402344 120.746094 233.179688 124.273438 233.179688 130.597656 L 233.179688 243.921875 C 233.179688 252.550781 230.117188 262.171875 224.164062 266.351562 C 218.398438 270.4375 209.550781 272.648438 199.375 272.648438 C 189.1875 272.648438 180.40625 270.371094 174.605469 266.351562 C 168.777344 262.320312 165.65625 257.007812 165.53125 248.359375 L 163.640625 134.652344 C 163.492188 124.769531 153.429688 128.300781 153.429688 134.652344 L 153.429688 248.359375 C 153.429688 257.007812 150.160156 262.320312 144.359375 266.351562 C 138.570312 270.371094 129.742188 272.648438 119.566406 272.648438 C 109.417969 272.648438 100.605469 270.371094 94.800781 266.351562 C 88.972656 262.320312 85.757812 257.007812 85.757812 248.359375 L 85.757812 153.707031 C 85.863281 145.5625 75.710938 145.5625 75.777344 153.707031 L 73.636719 239.609375 C 73.636719 249.929688 58.101562 252.980469 47.550781 252.980469 C 40.492188 252.980469 34.601562 249.777344 29.90625 243.328125 C 25.242188 236.871094 22.089844 227.09375 22.089844 215.042969 L 22.089844 139.175781 C 22.089844 127.007812 23.828125 117.640625 27.292969 111.535156 C 30.730469 105.4375 35.484375 101.96875 44.46875 100.5625 L 75.785156 95.71875 C 77.296875 95.496094 78.679688 94.667969 79.625 93.484375 L 102.535156 64.613281 C 106.664062 59.382812 116.804688 56.046875 125.03125 57.160156 L 155.9375 61.25 C 157.351562 61.429688 158.808594 61.121094 160 60.367188 L 187.695312 42.726562 C 196.542969 37.054688 206.847656 38.722656 215.089844 43.0625 Z M 215.089844 43.0625 " fill-opacity="1" fill-rule="nonzero"/></g></svg>