<svg xmlns="http://www.w3.org/2000/svg" xmlns:xlink="http://www.w3.org/1999/xlink" width="500" zoomAndPan="magnify" viewBox="0 0 375 225" height="300" preserveAspectRatio="xMidYMid meet" version="1.0"><defs><g/><clipPath id="92c2fad9ef"><path d="M 21 68 L 131 68 L 131 159 L 21 159 Z M 21 68 " clip-rule="nonzero"/></clipPath><clipPath id="244d858659"><path d="M 24.226562 62.601562 L 134.707031 73.332031 L 126.078125 162.164062 L 15.597656 151.433594 Z M 24.226562 62.601562 " clip-rule="nonzero"/></clipPath><clipPath id="34e429db00"><path d="M 24.226562 62.601562 L 134.707031 73.332031 L 126.078125 162.164062 L 15.597656 151.433594 Z M 24.226562 62.601562 " clip-rule="nonzero"/></clipPath></defs><g clip-path="url(#92c2fad9ef)"><g clip-path="url(#244d858659)"><g clip-path="url(#34e429db00)"><path fill="#ff0049" d="M 119.925781 103.816406 L 122.5625 136.851562 C 122.8125 140 120.371094 142.195312 113.382812 143.25 L 84.375 147.519531 C 81.703125 149.964844 80.242188 157.117188 82.261719 157.800781 C 82.261719 157.800781 105.488281 157.902344 117.582031 158.035156 C 120.433594 158.035156 125.171875 154.398438 125.59375 151.453125 L 130.925781 112.316406 Z M 95.875 140.855469 L 91.691406 99.40625 L 94.789062 99.011719 L 99.707031 139.355469 C 100.023438 141.816406 119.339844 139.941406 119.109375 137.28125 L 115.027344 85.492188 C 114.804688 82.761719 110.144531 72.027344 108.117188 72.109375 L 97.273438 72.722656 C 94.613281 72.882812 93.636719 75.773438 89.917969 76.105469 C 86.621094 76.410156 83.089844 68.359375 80.132812 68.699219 L 69.214844 70.066406 C 66.1875 70.46875 65.40625 77.058594 62.082031 77.640625 C 58.679688 78.28125 56.808594 75.320312 54.398438 75.78125 L 45.828125 77.378906 C 42.355469 78.015625 41.53125 85.78125 38.160156 86.84375 C 35.074219 87.796875 32.730469 85.414062 30.386719 86.644531 L 23.128906 90.453125 C 21.449219 91.265625 21.199219 102.421875 21.820312 104.632812 L 31.121094 141.371094 C 31.621094 143.367188 46.148438 141.375 45.84375 139.46875 L 40.160156 105.582031 L 43.261719 105.1875 L 50.136719 145.441406 C 50.480469 147.628906 69.117188 145.550781 68.84375 143.371094 C 67.167969 129.804688 63.882812 102.746094 63.882812 102.746094 L 66.980469 102.351562 L 72.5 143.65625 C 72.839844 145.910156 96.175781 143.457031 95.871094 140.855469 Z M 95.875 140.855469 " fill-opacity="1" fill-rule="nonzero"/></g></g></g><g fill="#ffffff" fill-opacity="1"><g transform="translate(136.857012, 138.027837)"><g><path d="M 57.835938 -0.445312 C 63.089844 -0.617188 69.886719 -2.441406 73.390625 -4.917969 L 71.488281 -14.078125 C 70.59375 -13.441406 68.859375 -12.925781 67.71875 -12.886719 C 65.585938 -12.820312 64.414062 -13.617188 63.609375 -14.964844 L 60.878906 -19.21875 C 59.902344 -21.09375 58.566406 -22.34375 57.027344 -22.75 L 57.027344 -22.828125 C 68.128906 -25.859375 74.085938 -32.53125 73.785156 -41.746094 C 73.457031 -51.71875 65.585938 -57.023438 51.804688 -56.574219 L 7.570312 -55.125 L 0.683594 -0.0234375 L 24.136719 -0.789062 L 26.316406 -17.933594 L 32.027344 -18.121094 C 35.605469 -18.238281 38.316406 -16.957031 40.089844 -13.964844 L 42.117188 -10.21875 C 44.796875 -5.203125 48.851562 -0.152344 57.835938 -0.445312 Z M 27.878906 -30.789062 L 29.261719 -42.117188 L 42.8125 -42.558594 C 47.378906 -42.710938 49.949219 -41.039062 50.054688 -37.917969 C 50.1875 -33.808594 47.066406 -31.417969 41.355469 -31.230469 Z M 27.878906 -30.789062 "/></g></g></g><g fill="#ffffff" fill-opacity="1"><g transform="translate(209.715304, 135.641774)"><g><path d="M 34.761719 0.15625 C 57.222656 -0.578125 70.855469 -10.171875 72.90625 -26.699219 L 76.777344 -57.390625 L 53.328125 -56.625 L 49.582031 -26.699219 C 48.792969 -20.5 44.261719 -16.921875 36.875 -16.679688 C 29.644531 -16.441406 26.105469 -19.757812 26.816406 -25.953125 L 30.335938 -55.871094 L 6.882812 -55.101562 L 3.085938 -24.414062 C 1.039062 -7.882812 12.300781 0.894531 34.761719 0.15625 Z M 34.761719 0.15625 "/></g></g></g><g fill="#ffffff" fill-opacity="1"><g transform="translate(282.345191, 133.263191)"><g><path d="M 16.523438 -0.542969 L 39.972656 -1.308594 L 44.738281 -39.574219 L 63.46875 -40.1875 L 65.585938 -57.023438 L 4.675781 -55.03125 L 2.558594 -38.191406 L 21.289062 -38.804688 Z M 16.523438 -0.542969 "/></g></g></g></svg>